<?xml version="1.0" encoding="UTF-8"?>
<svg width="300px" height="300px" viewBox="0 0 300 300" version="1.1" xmlns="http://www.w3.org/2000/svg" xmlns:xlink="http://www.w3.org/1999/xlink">
    <!-- Generator: sketchtool 42 (36781) - http://www.bohemiancoding.com/sketch -->
    <title>46F22C56-4AC3-4D6E-AC8A-4E4C557D7C5A</title>
    <desc>Created with sketchtool.</desc>
    <defs>
        <polygon id="path-1" points="158.943396 154.754717 242.540881 238.352201 233.647799 247.245283 150.050314 163.647799 66.4528302 247.245283 57.5597484 238.352201 141.157233 154.754717 57.5471698 71.1572327 66.4402516 62.2641509 150.050314 145.861635 233.647799 62.2641509 242.540881 71.1572327"></polygon>
        <filter x="-50%" y="-50%" width="200%" height="200%" filterUnits="objectBoundingBox" id="filter-2">
            <feGaussianBlur stdDeviation="1.5" in="SourceAlpha" result="shadowBlurInner1"></feGaussianBlur>
            <feOffset dx="0" dy="1" in="shadowBlurInner1" result="shadowOffsetInner1"></feOffset>
            <feComposite in="shadowOffsetInner1" in2="SourceAlpha" operator="arithmetic" k2="-1" k3="1" result="shadowInnerInner1"></feComposite>
            <feColorMatrix values="0 0 0 0 0   0 0 0 0 0   0 0 0 0 0  0 0 0 0.5 0" type="matrix" in="shadowInnerInner1"></feColorMatrix>
        </filter>
        <path d="M150,300 C67.1572875,300 0,232.842712 0,150 C0,67.1572875 67.1572875,0 150,0 C232.842712,0 300,67.1572875 300,150 C300,232.842712 232.842712,300 150,300 Z M150,290 C227.319865,290 290,227.319865 290,150 C290,72.680135 227.319865,10 150,10 C72.680135,10 10,72.680135 10,150 C10,227.319865 72.680135,290 150,290 Z" id="path-3"></path>
        <filter x="-50%" y="-50%" width="200%" height="200%" filterUnits="objectBoundingBox" id="filter-4">
            <feGaussianBlur stdDeviation="1.5" in="SourceAlpha" result="shadowBlurInner1"></feGaussianBlur>
            <feOffset dx="0" dy="1" in="shadowBlurInner1" result="shadowOffsetInner1"></feOffset>
            <feComposite in="shadowOffsetInner1" in2="SourceAlpha" operator="arithmetic" k2="-1" k3="1" result="shadowInnerInner1"></feComposite>
            <feColorMatrix values="0 0 0 0 0   0 0 0 0 0   0 0 0 0 0  0 0 0 0.5 0" type="matrix" in="shadowInnerInner1"></feColorMatrix>
        </filter>
    </defs>
    <g id="FOR-V1" stroke="none" stroke-width="1" fill="none" fill-rule="evenodd">
        <g id="05-01---Error-Wrong-Browser" transform="translate(-362.000000, -171.000000)">
            <g id="WrongRed" transform="translate(362.000000, 171.000000)">
                <g id="Cancel">
                    <use fill="#FF7A7E" fill-rule="evenodd" xlink:href="#path-1"></use>
                    <use fill="black" fill-opacity="1" filter="url(#filter-2)" xlink:href="#path-1"></use>
                </g>
                <g id="Combined-Shape">
                    <use fill="#FF7A7E" fill-rule="evenodd" xlink:href="#path-3"></use>
                    <use fill="black" fill-opacity="1" filter="url(#filter-4)" xlink:href="#path-3"></use>
                </g>
            </g>
        </g>
    </g>
</svg>